<?xml version="1.0" encoding="iso-8859-1"?>
<!-- Generator: Adobe Illustrator 19.0.0, SVG Export Plug-In . SVG Version: 6.00 Build 0)  -->
<svg version="1.1" id="Capa_1" xmlns="http://www.w3.org/2000/svg" xmlns:xlink="http://www.w3.org/1999/xlink" x="0px" y="0px"
	 viewBox="0 0 490.1 490.1" style="enable-background:new 0 0 490.1 490.1;" xml:space="preserve">
<g>
	<g>
		<g>
			<path d="M478.3,454.25c-6.6,0-11.7-5.1-11.7-11.7V23.35H89.1c-6.6,0-11.7-5.1-11.7-11.7s5-11.6,11.7-11.6h389.3
				c6.6,0,11.7,5.1,11.7,11.7v430.9C490,448.85,484.9,454.25,478.3,454.25z"/>
		</g>
		<g>
			<g>
				<path d="M478.3,454.25c-6.6,0-11.7-5.1-11.7-11.7V23.35H89.1c-6.6,0-11.7-5.1-11.7-11.7s5-11.6,11.7-11.6h389.3
					c6.6,0,11.7,5.1,11.7,11.7v430.9C490,448.85,484.9,454.25,478.3,454.25z"/>
			</g>
			<path d="M0,82.45v407.6h407.6V82.45H0z M350,286.25c0,12-9.8,21.8-21.8,21.8H225.6v102.7c0,12-9.8,21.8-21.8,21.8l0,0
				c-12,0-21.8-9.8-21.8-21.8v-102.7H79.3c-12,0-21.8-9.8-21.8-21.8l0,0c0-12,9.8-21.8,21.8-21.8H182v-102.6
				c0-12,9.8-21.8,21.8-21.8l0,0c12,0,21.8,9.8,21.8,21.8v102.7h102.7C340.2,264.45,350,274.25,350,286.25L350,286.25z"/>
		</g>
	</g>
</g>
<g>
</g>
<g>
</g>
<g>
</g>
<g>
</g>
<g>
</g>
<g>
</g>
<g>
</g>
<g>
</g>
<g>
</g>
<g>
</g>
<g>
</g>
<g>
</g>
<g>
</g>
<g>
</g>
<g>
</g>
</svg>
